<?xml version="1.0" encoding="UTF-8" standalone="no"?>
<svg
   version="1.1"
   width="62.17564"
   height="62.17564"
   viewBox="0,0,62.17564,62.17564"
   id="svg4"
   sodipodi:docname="powerup.svg"
   inkscape:version="1.3.2 (091e20e, 2023-11-25, custom)"
   xmlns:inkscape="http://www.inkscape.org/namespaces/inkscape"
   xmlns:sodipodi="http://sodipodi.sourceforge.net/DTD/sodipodi-0.dtd"
   xmlns="http://www.w3.org/2000/svg"
   xmlns:svg="http://www.w3.org/2000/svg">
  <defs
     id="defs4" />
  <sodipodi:namedview
     id="namedview4"
     pagecolor="#505050"
     bordercolor="#ffffff"
     borderopacity="1"
     inkscape:showpageshadow="0"
     inkscape:pageopacity="0"
     inkscape:pagecheckerboard="1"
     inkscape:deskcolor="#505050"
     inkscape:zoom="13.140194"
     inkscape:cx="31.049769"
     inkscape:cy="31.08782"
     inkscape:window-width="1920"
     inkscape:window-height="1094"
     inkscape:window-x="-11"
     inkscape:window-y="-11"
     inkscape:window-maximized="1"
     inkscape:current-layer="svg4" />
  <g
     transform="translate(-208.91218,-148.91218)"
     id="g4">
    <g
       data-paper-data="{&quot;isPaintingLayer&quot;:true}"
       fill-rule="nonzero"
       stroke-linecap="butt"
       stroke-linejoin="miter"
       stroke-miterlimit="10"
       stroke-dasharray=""
       stroke-dashoffset="0"
       style="mix-blend-mode: normal"
       id="g3">
      <path
         d="M208.91218,180l31.08782,-31.08782l31.08782,31.08782l-31.08782,31.08782z"
         fill="#1700ff"
         stroke="none"
         stroke-width="0.5"
         id="path1" />
      <path
         d="M227.72261,191.81427h24.55478l-12.27739,-32.30346z"
         fill="none"
         stroke="#4251ff"
         stroke-width="1.5"
         id="path2" />
      <path
         d="M232.34034,186.39748l7.69621,-21.00578l7.6231,21.00578l-7.65966,-21.10413z"
         fill="none"
         stroke="#4251ff"
         stroke-width="1"
         id="path3" />
      <path
         d="m 22.929687,-20.292969 q 0,1.933594 -0.683593,3.59375 -0.664063,1.640625 -1.875,2.851563 -1.503907,1.503906 -3.554688,2.265625 -2.050781,0.742187 -5.175781,0.742187 H 7.7734375 V 0 H 3.90625 v -29.082031 h 7.890625 q 2.617188,0 4.433594,0.449219 1.816406,0.429687 3.222656,1.367187 1.660156,1.113281 2.558594,2.773438 0.917968,1.660156 0.917968,4.199218 z m -4.023437,0.09766 q 0,-1.503907 -0.527344,-2.617188 -0.527344,-1.113281 -1.601562,-1.816406 -0.9375,-0.605469 -2.148438,-0.859375 -1.191406,-0.273438 -3.027343,-0.273438 H 7.7734375 v 11.621094 h 3.2617185 q 2.34375,0 3.808594,-0.410156 1.464844,-0.429688 2.382812,-1.347657 0.917969,-0.937499 1.289063,-1.972656 0.390625,-1.035156 0.390625,-2.324218 z"
         id="text3"
         style="font-size:40px;font-family:Handwriting;stroke:#000000;stroke-width:0;stroke-opacity:0"
         transform="translate(233.66306,188.14033) scale(0.47071,0.47071)"
         aria-label="P" />
    </g>
  </g>
</svg>
